REM DIRINDEX 1\2\4\18,1\2\4\19,1\2\5\20,1\2\5\21,1\2\6\22,1\2\6\23,1\2\7\24,1\2\8\25,1\2\9\26,1\2\10\27,1\2\10\28,1\3\11\29,1\3\11\30,1\3\11\31,1\3\11\32,1\3\12\33,1\3\12\34,1\3\12\35,1\3\12\36,1\3\13\37,1\3\13\38,1\3\13\39,1\3\13\40,1\3\14\41,1\3\14\42,1\3\15\43,1\3\15\44,1\3\16\45,1\3\16\46,1\3\17\47,1\3\17\48,1\3\17\49,1\3\17\50
REM DIRNAME folder01,folder02,folder03,folder04,folder05,folder06,folder07,folder08,folder09,folder10,folder11,folder12,folder13,folder14,folder15,folder16,folder17,folder18,folder19,folder20,folder21,folder22,folder23,folder24,folder25,folder26,folder27,folder28,folder29,folder30,folder31,folder32,folder33,folder34,folder35,folder36,folder37,folder38,folder39,folder40,folder41,folder42,folder43,folder44,folder45,folder46,folder47,folder48,folder49,folder50
TITLE ""
FILE "13.mp3" MP3
  TRACK 01 AUDIO
    TITLE "0:"
    INDEX 01 00:00:00
  TRACK 02 AUDIO
    TITLE "18:cjc135_1850"
    INDEX 01 00:00:15
  TRACK 03 AUDIO
    TITLE "0:"
    INDEX 01 00:01:42
  TRACK 04 AUDIO
    TITLE "19:cjc135_1851"
    INDEX 01 00:01:68
  TRACK 05 AUDIO
    TITLE "0:"
    INDEX 01 00:04:19
  TRACK 06 AUDIO
    TITLE "18:cjc135_1852"
    INDEX 01 00:05:16
  TRACK 07 AUDIO
    TITLE "0:"
    INDEX 01 00:06:39
  TRACK 08 AUDIO
    TITLE "19:cjc135_1853"
    INDEX 01 00:06:63
  TRACK 09 AUDIO
    TITLE "0:"
    INDEX 01 00:09:04
  TRACK 10 AUDIO
    TITLE "18:cjc135_1854"
    INDEX 01 00:10:06
  TRACK 11 AUDIO
    TITLE "0:"
    INDEX 01 00:11:15
  TRACK 12 AUDIO
    TITLE "19:cjc135_1855"
    INDEX 01 00:11:40
  TRACK 13 AUDIO
    TITLE "0:"
    INDEX 01 00:13:59
  TRACK 14 AUDIO
    TITLE "18:cjc135_1856"
    INDEX 01 00:14:56
  TRACK 15 AUDIO
    TITLE "0:"
    INDEX 01 00:15:64
  TRACK 16 AUDIO
    TITLE "19:cjc135_1857"
    INDEX 01 00:16:16
  TRACK 17 AUDIO
    TITLE "0:"
    INDEX 01 00:18:05
  TRACK 18 AUDIO
    TITLE "18:cjc135_1858"
    INDEX 01 00:19:05
  TRACK 19 AUDIO
    TITLE "0:"
    INDEX 01 00:20:18
  TRACK 20 AUDIO
    TITLE "19:cjc135_1859"
    INDEX 01 00:20:41
  TRACK 21 AUDIO
    TITLE "0:"
    INDEX 01 00:22:21
  TRACK 22 AUDIO
    TITLE "18:cjc135_1860"
    INDEX 01 00:23:20
  TRACK 23 AUDIO
    TITLE "0:"
    INDEX 01 00:24:25
  TRACK 24 AUDIO
    TITLE "19:cjc135_1861"
    INDEX 01 00:24:53
  TRACK 25 AUDIO
    TITLE "0:"
    INDEX 01 00:27:06
  TRACK 26 AUDIO
    TITLE "18:cjc135_1862"
    INDEX 01 00:28:08
  TRACK 27 AUDIO
    TITLE "0:"
    INDEX 01 00:29:23
  TRACK 28 AUDIO
    TITLE "19:cjc135_1863"
    INDEX 01 00:29:46
  TRACK 29 AUDIO
    TITLE "0:"
    INDEX 01 00:32:15
  TRACK 30 AUDIO
    TITLE "18:cjc135_1864"
    INDEX 01 00:33:15
  TRACK 31 AUDIO
    TITLE "0:"
    INDEX 01 00:34:20
  TRACK 32 AUDIO
    TITLE "19:cjc135_1865"
    INDEX 01 00:34:45
  TRACK 33 AUDIO
    TITLE "0:"
    INDEX 01 00:36:40
  TRACK 34 AUDIO
    TITLE "18:cjc135_1866"
    INDEX 01 00:37:42
  TRACK 35 AUDIO
    TITLE "0:"
    INDEX 01 00:38:59
  TRACK 36 AUDIO
    TITLE "19:cjc135_1867"
    INDEX 01 00:39:09
  TRACK 37 AUDIO
    TITLE "0:"
    INDEX 01 00:42:31
  TRACK 38 AUDIO
    TITLE "18:cjc135_1868"
    INDEX 01 00:43:29
  TRACK 39 AUDIO
    TITLE "0:"
    INDEX 01 00:44:36
  TRACK 40 AUDIO
    TITLE "19:cjc135_1869"
    INDEX 01 00:44:60
  TRACK 41 AUDIO
    TITLE "0:"
    INDEX 01 00:46:70
  TRACK 42 AUDIO
    TITLE "18:cjc135_1870"
    INDEX 01 00:48:00
  TRACK 43 AUDIO
    TITLE "0:"
    INDEX 01 00:49:08
  TRACK 44 AUDIO
    TITLE "19:cjc135_1871"
    INDEX 01 00:49:31
  TRACK 45 AUDIO
    TITLE "0:"
    INDEX 01 00:51:67
  TRACK 46 AUDIO
    TITLE "18:cjc135_1872"
    INDEX 01 00:52:69
  TRACK 47 AUDIO
    TITLE "0:"
    INDEX 01 00:53:64
  TRACK 48 AUDIO
    TITLE "19:cjc135_1873"
    INDEX 01 00:54:15
  TRACK 49 AUDIO
    TITLE "0:"
    INDEX 01 00:56:24
  TRACK 50 AUDIO
    TITLE "18:cjc135_1874"
    INDEX 01 00:57:25
  TRACK 51 AUDIO
    TITLE "0:"
    INDEX 01 00:58:30
  TRACK 52 AUDIO
    TITLE "19:cjc135_1875"
    INDEX 01 00:58:54
  TRACK 53 AUDIO
    TITLE "0:"
    INDEX 01 01:01:05
  TRACK 54 AUDIO
    TITLE "18:cjc135_1876"
    INDEX 01 01:02:05
  TRACK 55 AUDIO
    TITLE "0:"
    INDEX 01 01:03:12
  TRACK 56 AUDIO
    TITLE "19:cjc135_1877"
    INDEX 01 01:03:37
  TRACK 57 AUDIO
    TITLE "0:"
    INDEX 01 01:06:22
  TRACK 58 AUDIO
    TITLE "18:cjc135_1878"
    INDEX 01 01:07:23
  TRACK 59 AUDIO
    TITLE "0:"
    INDEX 01 01:08:23
  TRACK 60 AUDIO
    TITLE "19:cjc135_1879"
    INDEX 01 01:08:46
  TRACK 61 AUDIO
    TITLE "0:"
    INDEX 01 01:10:16
  TRACK 62 AUDIO
    TITLE "18:cjc135_1880"
    INDEX 01 01:11:15
  TRACK 63 AUDIO
    TITLE "0:"
    INDEX 01 01:12:36
  TRACK 64 AUDIO
    TITLE "19:cjc135_1881"
    INDEX 01 01:12:60
  TRACK 65 AUDIO
    TITLE "0:"
    INDEX 01 01:14:39
  TRACK 66 AUDIO
    TITLE "18:cjc135_1882"
    INDEX 01 01:15:39
  TRACK 67 AUDIO
    TITLE "0:"
    INDEX 01 01:16:52
  TRACK 68 AUDIO
    TITLE "19:cjc135_1883"
    INDEX 01 01:17:00
  TRACK 69 AUDIO
    TITLE "0:"
    INDEX 01 01:18:51
  TRACK 70 AUDIO
    TITLE "18:cjc135_1884"
    INDEX 01 01:19:52
  TRACK 71 AUDIO
    TITLE "0:"
    INDEX 01 01:21:00
  TRACK 72 AUDIO
    TITLE "19:cjc135_1885"
    INDEX 01 01:21:25
  TRACK 73 AUDIO
    TITLE "0:"
    INDEX 01 01:23:34
  TRACK 74 AUDIO
    TITLE "18:cjc135_1886"
    INDEX 01 01:24:36
  TRACK 75 AUDIO
    TITLE "0:"
    INDEX 01 01:25:49
  TRACK 76 AUDIO
    TITLE "19:cjc135_1887"
    INDEX 01 01:25:74
  TRACK 77 AUDIO
    TITLE "0:"
    INDEX 01 01:27:46
  TRACK 78 AUDIO
    TITLE "18:cjc135_1888"
    INDEX 01 01:28:47
  TRACK 79 AUDIO
    TITLE "0:"
    INDEX 01 01:29:52
  TRACK 80 AUDIO
    TITLE "19:cjc135_1889"
    INDEX 01 01:30:03
  TRACK 81 AUDIO
    TITLE "0:"
    INDEX 01 01:32:51
  TRACK 82 AUDIO
    TITLE "18:cjc135_1890"
    INDEX 01 01:33:50
  TRACK 83 AUDIO
    TITLE "0:"
    INDEX 01 01:34:69
  TRACK 84 AUDIO
    TITLE "19:cjc135_1891"
    INDEX 01 01:35:20
  TRACK 85 AUDIO
    TITLE "0:"
    INDEX 01 01:38:12
  TRACK 86 AUDIO
    TITLE "18:cjc135_1892"
    INDEX 01 01:39:10
  TRACK 87 AUDIO
    TITLE "0:"
    INDEX 01 01:40:17
  TRACK 88 AUDIO
    TITLE "19:cjc135_1893"
    INDEX 01 01:40:42
  TRACK 89 AUDIO
    TITLE "0:"
    INDEX 01 01:42:37
  TRACK 90 AUDIO
    TITLE "18:cjc135_1894"
    INDEX 01 01:43:35
  TRACK 91 AUDIO
    TITLE "0:"
    INDEX 01 01:44:44
  TRACK 92 AUDIO
    TITLE "19:cjc135_1895"
    INDEX 01 01:44:68
  TRACK 93 AUDIO
    TITLE "0:"
    INDEX 01 01:46:70
  TRACK 94 AUDIO
    TITLE "18:cjc135_1896"
    INDEX 01 01:47:70
  TRACK 95 AUDIO
    TITLE "0:"
    INDEX 01 01:49:14
  TRACK 96 AUDIO
    TITLE "19:cjc135_1897"
    INDEX 01 01:49:37
  TRACK 97 AUDIO
    TITLE "0:"
    INDEX 01 01:51:32
  TRACK 98 AUDIO
    TITLE "18:cjc135_1898"
    INDEX 01 01:52:32
  TRACK 99 AUDIO
    TITLE "0:"
    INDEX 01 01:53:57
  TRACK 100 AUDIO
    TITLE "19:cjc135_1899"
    INDEX 01 01:54:05
  TRACK 101 AUDIO
    TITLE "0:"
    INDEX 01 01:56:02
  TRACK 102 AUDIO
    TITLE "18:cjc135_1900"
    INDEX 01 01:57:02
  TRACK 103 AUDIO
    TITLE "0:"
    INDEX 01 01:58:09
  TRACK 104 AUDIO
    TITLE "19:cjc135_1901"
    INDEX 01 01:58:34
  TRACK 105 AUDIO
    TITLE "0:"
    INDEX 01 02:00:16
  TRACK 106 AUDIO
    TITLE "18:cjc135_1902"
    INDEX 01 02:01:17
  TRACK 107 AUDIO
    TITLE "0:"
    INDEX 01 02:02:24
  TRACK 108 AUDIO
    TITLE "19:cjc135_1903"
    INDEX 01 02:02:52
  TRACK 109 AUDIO
    TITLE "0:"
    INDEX 01 02:05:11
  TRACK 110 AUDIO
    TITLE "18:cjc135_1904"
    INDEX 01 02:06:10
  TRACK 111 AUDIO
    TITLE "0:"
    INDEX 01 02:07:43
  TRACK 112 AUDIO
    TITLE "19:cjc135_1905"
    INDEX 01 02:07:67
  TRACK 113 AUDIO
    TITLE "0:"
    INDEX 01 02:10:00
  TRACK 114 AUDIO
    TITLE "18:cjc135_1906"
    INDEX 01 02:11:04
  TRACK 115 AUDIO
    TITLE "0:"
    INDEX 01 02:12:29
  TRACK 116 AUDIO
    TITLE "19:cjc135_1907"
    INDEX 01 02:12:54
  TRACK 117 AUDIO
    TITLE "0:"
    INDEX 01 02:15:03
  TRACK 118 AUDIO
    TITLE "18:cjc135_1908"
    INDEX 01 02:16:05
  TRACK 119 AUDIO
    TITLE "0:"
    INDEX 01 02:17:26
  TRACK 120 AUDIO
    TITLE "19:cjc135_1909"
    INDEX 01 02:17:51
  TRACK 121 AUDIO
    TITLE "0:"
    INDEX 01 02:20:38
  TRACK 122 AUDIO
    TITLE "18:cjc135_1910"
    INDEX 01 02:21:37
  TRACK 123 AUDIO
    TITLE "0:"
    INDEX 01 02:22:35
  TRACK 124 AUDIO
    TITLE "19:cjc135_1911"
    INDEX 01 02:22:60
  TRACK 125 AUDIO
    TITLE "0:"
    INDEX 01 02:24:14
  TRACK 126 AUDIO
    TITLE "18:cjc135_1912"
    INDEX 01 02:25:12
  TRACK 127 AUDIO
    TITLE "0:"
    INDEX 01 02:26:42
  TRACK 128 AUDIO
    TITLE "19:cjc135_1913"
    INDEX 01 02:26:68
  TRACK 129 AUDIO
    TITLE "0:"
    INDEX 01 02:30:40
  TRACK 130 AUDIO
    TITLE "18:cjc135_1914"
    INDEX 01 02:31:40
  TRACK 131 AUDIO
    TITLE "0:"
    INDEX 01 02:32:53
  TRACK 132 AUDIO
    TITLE "19:cjc135_1915"
    INDEX 01 02:33:01
  TRACK 133 AUDIO
    TITLE "0:"
    INDEX 01 02:35:63
  TRACK 134 AUDIO
    TITLE "18:cjc135_1916"
    INDEX 01 02:36:62
  TRACK 135 AUDIO
    TITLE "0:"
    INDEX 01 02:37:74
  TRACK 136 AUDIO
    TITLE "19:cjc135_1917"
    INDEX 01 02:38:24
  TRACK 137 AUDIO
    TITLE "0:"
    INDEX 01 02:40:15
  TRACK 138 AUDIO
    TITLE "18:cjc135_1918"
    INDEX 01 02:41:15
  TRACK 139 AUDIO
    TITLE "0:"
    INDEX 01 02:42:30
  TRACK 140 AUDIO
    TITLE "19:cjc135_1919"
    INDEX 01 02:42:55
  TRACK 141 AUDIO
    TITLE "0:"
    INDEX 01 02:44:56
  TRACK 142 AUDIO
    TITLE "18:cjc135_1920"
    INDEX 01 02:45:56
  TRACK 143 AUDIO
    TITLE "0:"
    INDEX 01 02:47:07
  TRACK 144 AUDIO
    TITLE "19:cjc135_1921"
    INDEX 01 02:47:33
  TRACK 145 AUDIO
    TITLE "0:"
    INDEX 01 02:49:55
  TRACK 146 AUDIO
    TITLE "18:cjc135_1922"
    INDEX 01 02:50:55
  TRACK 147 AUDIO
    TITLE "0:"
    INDEX 01 02:51:70
  TRACK 148 AUDIO
    TITLE "19:cjc135_1923"
    INDEX 01 02:52:16
  TRACK 149 AUDIO
    TITLE "0:"
    INDEX 01 02:53:67
  TRACK 150 AUDIO
    TITLE "18:cjc135_1924"
    INDEX 01 02:54:64
  TRACK 151 AUDIO
    TITLE "0:"
    INDEX 01 02:56:06
  TRACK 152 AUDIO
    TITLE "19:cjc135_1925"
    INDEX 01 02:56:30
  TRACK 153 AUDIO
    TITLE "0:"
    INDEX 01 02:58:35
  TRACK 154 AUDIO
    TITLE "18:cjc135_1926"
    INDEX 01 02:59:34
  TRACK 155 AUDIO
    TITLE "0:"
    INDEX 01 03:00:47
  TRACK 156 AUDIO
    TITLE "19:cjc135_1927"
    INDEX 01 03:00:73
  TRACK 157 AUDIO
    TITLE "0:"
    INDEX 01 03:03:26
  TRACK 158 AUDIO
    TITLE "18:cjc135_1928"
    INDEX 01 03:04:25
  TRACK 159 AUDIO
    TITLE "0:"
    INDEX 01 03:05:37
  TRACK 160 AUDIO
    TITLE "19:cjc135_1929"
    INDEX 01 03:05:62
  TRACK 161 AUDIO
    TITLE "0:"
    INDEX 01 03:07:69
  TRACK 162 AUDIO
    TITLE "18:cjc135_1930"
    INDEX 01 03:08:66
  TRACK 163 AUDIO
    TITLE "0:"
    INDEX 01 03:10:10
  TRACK 164 AUDIO
    TITLE "19:cjc135_1931"
    INDEX 01 03:10:36
  TRACK 165 AUDIO
    TITLE "0:"
    INDEX 01 03:12:45
  TRACK 166 AUDIO
    TITLE "18:cjc135_1932"
    INDEX 01 03:13:48
  TRACK 167 AUDIO
    TITLE "0:"
    INDEX 01 03:14:67
  TRACK 168 AUDIO
    TITLE "19:cjc135_1933"
    INDEX 01 03:15:15
  TRACK 169 AUDIO
    TITLE "0:"
    INDEX 01 03:17:50
  TRACK 170 AUDIO
    TITLE "18:cjc135_1934"
    INDEX 01 03:18:53
  TRACK 171 AUDIO
    TITLE "0:"
    INDEX 01 03:19:74
  TRACK 172 AUDIO
    TITLE "19:cjc135_1935"
    INDEX 01 03:20:23
  TRACK 173 AUDIO
    TITLE "0:"
    INDEX 01 03:23:09
  TRACK 174 AUDIO
    TITLE "18:cjc135_1936"
    INDEX 01 03:24:11
  TRACK 175 AUDIO
    TITLE "0:"
    INDEX 01 03:25:20
  TRACK 176 AUDIO
    TITLE "19:cjc135_1937"
    INDEX 01 03:25:47
  TRACK 177 AUDIO
    TITLE "0:"
    INDEX 01 03:28:24
  TRACK 178 AUDIO
    TITLE "18:cjc135_1938"
    INDEX 01 03:29:25
  TRACK 179 AUDIO
    TITLE "0:"
    INDEX 01 03:30:33
  TRACK 180 AUDIO
    TITLE "19:cjc135_1939"
    INDEX 01 03:30:56
  TRACK 181 AUDIO
    TITLE "0:"
    INDEX 01 03:32:53
  TRACK 182 AUDIO
    TITLE "18:cjc135_1940"
    INDEX 01 03:33:55
  TRACK 183 AUDIO
    TITLE "0:"
    INDEX 01 03:34:70
  TRACK 184 AUDIO
    TITLE "19:cjc135_1941"
    INDEX 01 03:35:20
  TRACK 185 AUDIO
    TITLE "0:"
    INDEX 01 03:37:29
  TRACK 186 AUDIO
    TITLE "18:cjc135_1942"
    INDEX 01 03:38:30
  TRACK 187 AUDIO
    TITLE "0:"
    INDEX 01 03:39:51
  TRACK 188 AUDIO
    TITLE "19:cjc135_1943"
    INDEX 01 03:40:00
  TRACK 189 AUDIO
    TITLE "0:"
    INDEX 01 03:41:66
  TRACK 190 AUDIO
    TITLE "18:cjc135_1944"
    INDEX 01 03:42:65
  TRACK 191 AUDIO
    TITLE "0:"
    INDEX 01 03:44:01
  TRACK 192 AUDIO
    TITLE "19:cjc135_1945"
    INDEX 01 03:44:27
  TRACK 193 AUDIO
    TITLE "0:"
    INDEX 01 03:46:36
  TRACK 194 AUDIO
    TITLE "18:cjc135_1946"
    INDEX 01 03:47:37
  TRACK 195 AUDIO
    TITLE "0:"
    INDEX 01 03:48:48
  TRACK 196 AUDIO
    TITLE "19:cjc135_1947"
    INDEX 01 03:48:72
  TRACK 197 AUDIO
    TITLE "0:"
    INDEX 01 03:51:51
  TRACK 198 AUDIO
    TITLE "18:cjc135_1948"
    INDEX 01 03:52:50
  TRACK 199 AUDIO
    TITLE "0:"
    INDEX 01 03:53:65
  TRACK 200 AUDIO
    TITLE "19:cjc135_1949"
    INDEX 01 03:54:16
  TRACK 201 AUDIO
    TITLE "0:"
    INDEX 01 03:56:14
  TRACK 202 AUDIO
    TITLE "18:cjc135_1950"
    INDEX 01 03:57:14
  TRACK 203 AUDIO
    TITLE "0:"
    INDEX 01 03:58:31
  TRACK 204 AUDIO
    TITLE "19:cjc135_1951"
    INDEX 01 03:58:54
  TRACK 205 AUDIO
    TITLE "0:"
    INDEX 01 04:00:26
  TRACK 206 AUDIO
    TITLE "18:cjc135_1952"
    INDEX 01 04:01:25
  TRACK 207 AUDIO
    TITLE "0:"
    INDEX 01 04:02:48
  TRACK 208 AUDIO
    TITLE "19:cjc135_1953"
    INDEX 01 04:02:74
  TRACK 209 AUDIO
    TITLE "0:"
    INDEX 01 04:06:25
  TRACK 210 AUDIO
    TITLE "18:cjc135_1954"
    INDEX 01 04:07:28
  TRACK 211 AUDIO
    TITLE "0:"
    INDEX 01 04:08:39
  TRACK 212 AUDIO
    TITLE "19:cjc135_1955"
    INDEX 01 04:08:65
  TRACK 213 AUDIO
    TITLE "0:"
    INDEX 01 04:10:44
  TRACK 214 AUDIO
    TITLE "18:cjc135_1956"
    INDEX 01 04:11:43
  TRACK 215 AUDIO
    TITLE "0:"
    INDEX 01 04:12:53
  TRACK 216 AUDIO
    TITLE "19:cjc135_1957"
    INDEX 01 04:13:05
  TRACK 217 AUDIO
    TITLE "0:"
    INDEX 01 04:15:20
  TRACK 218 AUDIO
    TITLE "18:cjc135_1958"
    INDEX 01 04:16:19
  TRACK 219 AUDIO
    TITLE "0:"
    INDEX 01 04:17:44
  TRACK 220 AUDIO
    TITLE "19:cjc135_1959"
    INDEX 01 04:17:69
  TRACK 221 AUDIO
    TITLE "0:"
    INDEX 01 04:19:66
  TRACK 222 AUDIO
    TITLE "18:cjc135_1960"
    INDEX 01 04:20:64
  TRACK 223 AUDIO
    TITLE "0:"
    INDEX 01 04:22:00
  TRACK 224 AUDIO
    TITLE "19:cjc135_1961"
    INDEX 01 04:22:26
  TRACK 225 AUDIO
    TITLE "0:"
    INDEX 01 04:24:46
  TRACK 226 AUDIO
    TITLE "18:cjc135_1962"
    INDEX 01 04:25:49
  TRACK 227 AUDIO
    TITLE "0:"
    INDEX 01 04:26:74
  TRACK 228 AUDIO
    TITLE "19:cjc135_1963"
    INDEX 01 04:27:25
  TRACK 229 AUDIO
    TITLE "0:"
    INDEX 01 04:30:33
  TRACK 230 AUDIO
    TITLE "18:cjc135_1964"
    INDEX 01 04:31:32
  TRACK 231 AUDIO
    TITLE "0:"
    INDEX 01 04:32:61
  TRACK 232 AUDIO
    TITLE "19:cjc135_1965"
    INDEX 01 04:33:12
  TRACK 233 AUDIO
    TITLE "0:"
    INDEX 01 04:35:56
  TRACK 234 AUDIO
    TITLE "18:cjc135_1966"
    INDEX 01 04:36:55
  TRACK 235 AUDIO
    TITLE "0:"
    INDEX 01 04:37:68
  TRACK 236 AUDIO
    TITLE "19:cjc135_1967"
    INDEX 01 04:38:17
  TRACK 237 AUDIO
    TITLE "0:"
    INDEX 01 04:39:57
  TRACK 238 AUDIO
    TITLE "18:cjc135_1968"
    INDEX 01 04:40:57
  TRACK 239 AUDIO
    TITLE "0:"
    INDEX 01 04:41:74
  TRACK 240 AUDIO
    TITLE "19:cjc135_1969"
    INDEX 01 04:42:22
  TRACK 241 AUDIO
    TITLE "0:"
    INDEX 01 04:43:67
  TRACK 242 AUDIO
    TITLE "18:cjc135_1970"
    INDEX 01 04:44:66
  TRACK 243 AUDIO
    TITLE "0:"
    INDEX 01 04:45:74
  TRACK 244 AUDIO
    TITLE "19:cjc135_1971"
    INDEX 01 04:46:28
  TRACK 245 AUDIO
    TITLE "0:"
    INDEX 01 04:49:01
  TRACK 246 AUDIO
    TITLE "18:cjc135_1972"
    INDEX 01 04:50:00
  TRACK 247 AUDIO
    TITLE "0:"
    INDEX 01 04:51:21
  TRACK 248 AUDIO
    TITLE "19:cjc135_1973"
    INDEX 01 04:51:47
  TRACK 249 AUDIO
    TITLE "0:"
    INDEX 01 04:53:44
  TRACK 250 AUDIO
    TITLE "18:cjc135_1974"
    INDEX 01 04:54:43
  TRACK 251 AUDIO
    TITLE "0:"
    INDEX 01 04:55:58
  TRACK 252 AUDIO
    TITLE "19:cjc135_1975"
    INDEX 01 04:56:07
  TRACK 253 AUDIO
    TITLE "0:"
    INDEX 01 04:58:59
  TRACK 254 AUDIO
    TITLE "18:cjc135_1976"
    INDEX 01 04:59:58
  TRACK 255 AUDIO
    TITLE "0:"
    INDEX 01 05:01:12
  TRACK 256 AUDIO
    TITLE "19:cjc135_1977"
    INDEX 01 05:01:37
  TRACK 257 AUDIO
    TITLE "0:"
    INDEX 01 05:03:21
  TRACK 258 AUDIO
    TITLE "18:cjc135_1978"
    INDEX 01 05:04:20
  TRACK 259 AUDIO
    TITLE "0:"
    INDEX 01 05:05:31
  TRACK 260 AUDIO
    TITLE "19:cjc135_1979"
    INDEX 01 05:05:57
  TRACK 261 AUDIO
    TITLE "0:"
    INDEX 01 05:07:52
  TRACK 262 AUDIO
    TITLE "18:cjc135_1980"
    INDEX 01 05:08:53
  TRACK 263 AUDIO
    TITLE "0:"
    INDEX 01 05:09:64
  TRACK 264 AUDIO
    TITLE "19:cjc135_1981"
    INDEX 01 05:10:15
  TRACK 265 AUDIO
    TITLE "0:"
    INDEX 01 05:11:71
  TRACK 266 AUDIO
    TITLE "18:cjc135_1982"
    INDEX 01 05:12:69
  TRACK 267 AUDIO
    TITLE "0:"
    INDEX 01 05:14:20
  TRACK 268 AUDIO
    TITLE "19:cjc135_1983"
    INDEX 01 05:14:48
  TRACK 269 AUDIO
    TITLE "0:"
    INDEX 01 05:16:47
  TRACK 270 AUDIO
    TITLE "18:cjc135_1984"
    INDEX 01 05:17:46
  TRACK 271 AUDIO
    TITLE "0:"
    INDEX 01 05:18:73
  TRACK 272 AUDIO
    TITLE "19:cjc135_1985"
    INDEX 01 05:19:22
  TRACK 273 AUDIO
    TITLE "0:"
    INDEX 01 05:21:26
  TRACK 274 AUDIO
    TITLE "18:cjc135_1986"
    INDEX 01 05:22:28
  TRACK 275 AUDIO
    TITLE "0:"
    INDEX 01 05:23:43
  TRACK 276 AUDIO
    TITLE "19:cjc135_1987"
    INDEX 01 05:23:66
  TRACK 277 AUDIO
    TITLE "0:"
    INDEX 01 05:26:47
  TRACK 278 AUDIO
    TITLE "18:cjc135_1988"
    INDEX 01 05:27:47
  TRACK 279 AUDIO
    TITLE "0:"
    INDEX 01 05:28:48
  TRACK 280 AUDIO
    TITLE "19:cjc135_1989"
    INDEX 01 05:28:73
  TRACK 281 AUDIO
    TITLE "0:"
    INDEX 01 05:31:05
  TRACK 282 AUDIO
    TITLE "18:cjc135_1990"
    INDEX 01 05:32:05
  TRACK 283 AUDIO
    TITLE "0:"
    INDEX 01 05:33:30
  TRACK 284 AUDIO
    TITLE "19:cjc135_1991"
    INDEX 01 05:33:55
  TRACK 285 AUDIO
    TITLE "0:"
    INDEX 01 05:36:65
  TRACK 286 AUDIO
    TITLE "18:cjc135_1992"
    INDEX 01 05:37:65
  TRACK 287 AUDIO
    TITLE "0:"
    INDEX 01 05:39:01
  TRACK 288 AUDIO
    TITLE "19:cjc135_1993"
    INDEX 01 05:39:24
  TRACK 289 AUDIO
    TITLE "0:"
    INDEX 01 05:40:67
  TRACK 290 AUDIO
    TITLE "18:cjc135_1994"
    INDEX 01 05:41:66
  TRACK 291 AUDIO
    TITLE "0:"
    INDEX 01 05:42:72
  TRACK 292 AUDIO
    TITLE "19:cjc135_1995"
    INDEX 01 05:43:24
  TRACK 293 AUDIO
    TITLE "0:"
    INDEX 01 05:45:01
  TRACK 294 AUDIO
    TITLE "18:cjc135_1996"
    INDEX 01 05:46:03
  TRACK 295 AUDIO
    TITLE "0:"
    INDEX 01 05:47:06
  TRACK 296 AUDIO
    TITLE "19:cjc135_1997"
    INDEX 01 05:47:30
  TRACK 297 AUDIO
    TITLE "0:"
    INDEX 01 05:49:11
  TRACK 298 AUDIO
    TITLE "18:cjc135_1998"
    INDEX 01 05:50:10
  TRACK 299 AUDIO
    TITLE "0:"
    INDEX 01 05:51:20
  TRACK 300 AUDIO
    TITLE "19:cjc135_1999"
    INDEX 01 05:51:45
  TRACK 301 AUDIO
    TITLE "0:"
    INDEX 01 05:53:58
  TRACK 302 AUDIO
    TITLE "18:cjc135_2000"
    INDEX 01 05:54:57
  TRACK 303 AUDIO
    TITLE "0:"
    INDEX 01 05:56:07
  TRACK 304 AUDIO
    TITLE "19:cjc135_2001"
    INDEX 01 05:56:35
  TRACK 305 AUDIO
    TITLE "0:"
    INDEX 01 05:58:49
  TRACK 306 AUDIO
    TITLE "18:cjc135_2002"
    INDEX 01 05:59:47
  TRACK 307 AUDIO
    TITLE "0:"
    INDEX 01 06:00:60
  TRACK 308 AUDIO
    TITLE "19:cjc135_2003"
    INDEX 01 06:01:12
  TRACK 309 AUDIO
    TITLE "0:"
    INDEX 01 06:03:50
  TRACK 310 AUDIO
    TITLE "18:cjc135_2004"
    INDEX 01 06:04:50
  TRACK 311 AUDIO
    TITLE "0:"
    INDEX 01 06:05:57
  TRACK 312 AUDIO
    TITLE "19:cjc135_2005"
    INDEX 01 06:06:09
  TRACK 313 AUDIO
    TITLE "0:"
    INDEX 01 06:08:53
  TRACK 314 AUDIO
    TITLE "18:cjc135_2006"
    INDEX 01 06:09:53
  TRACK 315 AUDIO
    TITLE "0:"
    INDEX 01 06:10:52
  TRACK 316 AUDIO
    TITLE "19:cjc135_2007"
    INDEX 01 06:11:03
  TRACK 317 AUDIO
    TITLE "0:"
    INDEX 01 06:13:37
  TRACK 318 AUDIO
    TITLE "18:cjc135_2008"
    INDEX 01 06:14:42
  TRACK 319 AUDIO
    TITLE "0:"
    INDEX 01 06:15:55
  TRACK 320 AUDIO
    TITLE "19:cjc135_2009"
    INDEX 01 06:16:04
  TRACK 321 AUDIO
    TITLE "0:"
    INDEX 01 06:18:50
  TRACK 322 AUDIO
    TITLE "18:cjc135_2010"
    INDEX 01 06:19:49
  TRACK 323 AUDIO
    TITLE "0:"
    INDEX 01 06:20:68
  TRACK 324 AUDIO
    TITLE "19:cjc135_2011"
    INDEX 01 06:21:19
  TRACK 325 AUDIO
    TITLE "0:"
    INDEX 01 06:23:65
  TRACK 326 AUDIO
    TITLE "18:cjc135_2012"
    INDEX 01 06:24:64
  TRACK 327 AUDIO
    TITLE "0:"
    INDEX 01 06:26:00
  TRACK 328 AUDIO
    TITLE "19:cjc135_2013"
    INDEX 01 06:26:24
  TRACK 329 AUDIO
    TITLE "0:"
    INDEX 01 06:28:40
  TRACK 330 AUDIO
    TITLE "18:cjc135_2014"
    INDEX 01 06:29:40
  TRACK 331 AUDIO
    TITLE "0:"
    INDEX 01 06:30:37
  TRACK 332 AUDIO
    TITLE "19:cjc135_2015"
    INDEX 01 06:30:63
  TRACK 333 AUDIO
    TITLE "0:"
    INDEX 01 06:33:12
  TRACK 334 AUDIO
    TITLE "18:cjc135_2016"
    INDEX 01 06:34:12
  TRACK 335 AUDIO
    TITLE "0:"
    INDEX 01 06:35:40
  TRACK 336 AUDIO
    TITLE "19:cjc135_2017"
    INDEX 01 06:35:64
  TRACK 337 AUDIO
    TITLE "0:"
    INDEX 01 06:38:31
  TRACK 338 AUDIO
    TITLE "18:cjc135_2018"
    INDEX 01 06:39:30
  TRACK 339 AUDIO
    TITLE "0:"
    INDEX 01 06:40:32
  TRACK 340 AUDIO
    TITLE "19:cjc135_2019"
    INDEX 01 06:40:57
  TRACK 341 AUDIO
    TITLE "0:"
    INDEX 01 06:43:54
  TRACK 342 AUDIO
    TITLE "18:cjc135_2020"
    INDEX 01 06:44:53
  TRACK 343 AUDIO
    TITLE "0:"
    INDEX 01 06:45:74
  TRACK 344 AUDIO
    TITLE "19:cjc135_2021"
    INDEX 01 06:46:25
  TRACK 345 AUDIO
    TITLE "0:"
    INDEX 01 06:48:12
  TRACK 346 AUDIO
    TITLE "18:cjc135_2022"
    INDEX 01 06:49:13
  TRACK 347 AUDIO
    TITLE "0:"
    INDEX 01 06:50:32
  TRACK 348 AUDIO
    TITLE "19:cjc135_2023"
    INDEX 01 06:50:58
  TRACK 349 AUDIO
    TITLE "0:"
    INDEX 01 06:52:62
  TRACK 350 AUDIO
    TITLE "18:cjc135_2024"
    INDEX 01 06:53:62
  TRACK 351 AUDIO
    TITLE "0:"
    INDEX 01 06:54:65
  TRACK 352 AUDIO
    TITLE "19:cjc135_2025"
    INDEX 01 06:55:14
  TRACK 353 AUDIO
    TITLE "0:"
    INDEX 01 06:56:60
  TRACK 354 AUDIO
    TITLE "18:cjc135_2026"
    INDEX 01 06:57:60
  TRACK 355 AUDIO
    TITLE "0:"
    INDEX 01 06:59:04
  TRACK 356 AUDIO
    TITLE "19:cjc135_2027"
    INDEX 01 06:59:29
  TRACK 357 AUDIO
    TITLE "0:"
    INDEX 01 07:01:30
  TRACK 358 AUDIO
    TITLE "18:cjc135_2028"
    INDEX 01 07:02:31
  TRACK 359 AUDIO
    TITLE "0:"
    INDEX 01 07:03:43
  TRACK 360 AUDIO
    TITLE "19:cjc135_2029"
    INDEX 01 07:03:66
  TRACK 361 AUDIO
    TITLE "0:"
    INDEX 01 07:07:27
  TRACK 362 AUDIO
    TITLE "18:cjc135_2030"
    INDEX 01 07:08:26
  TRACK 363 AUDIO
    TITLE "0:"
    INDEX 01 07:09:35
  TRACK 364 AUDIO
    TITLE "19:cjc135_2031"
    INDEX 01 07:09:61
  TRACK 365 AUDIO
    TITLE "0:"
    INDEX 01 07:13:12
  TRACK 366 AUDIO
    TITLE "18:cjc135_2032"
    INDEX 01 07:14:13
  TRACK 367 AUDIO
    TITLE "0:"
    INDEX 01 07:15:15
  TRACK 368 AUDIO
    TITLE "19:cjc135_2033"
    INDEX 01 07:15:40
  TRACK 369 AUDIO
    TITLE "0:"
    INDEX 01 07:17:19
  TRACK 370 AUDIO
    TITLE "18:cjc135_2034"
    INDEX 01 07:18:19
  TRACK 371 AUDIO
    TITLE "0:"
    INDEX 01 07:19:38
  TRACK 372 AUDIO
    TITLE "19:cjc135_2035"
    INDEX 01 07:19:65
  TRACK 373 AUDIO
    TITLE "0:"
    INDEX 01 07:21:45
  TRACK 374 AUDIO
    TITLE "18:cjc135_2036"
    INDEX 01 07:22:44
  TRACK 375 AUDIO
    TITLE "0:"
    INDEX 01 07:23:67
  TRACK 376 AUDIO
    TITLE "19:cjc135_2037"
    INDEX 01 07:24:17
  TRACK 377 AUDIO
    TITLE "0:"
    INDEX 01 07:26:20
  TRACK 378 AUDIO
    TITLE "18:cjc135_2038"
    INDEX 01 07:27:20
  TRACK 379 AUDIO
    TITLE "0:"
    INDEX 01 07:28:43
  TRACK 380 AUDIO
    TITLE "19:cjc135_2039"
    INDEX 01 07:28:70
  TRACK 381 AUDIO
    TITLE "0:"
    INDEX 01 07:30:65
  TRACK 382 AUDIO
    TITLE "18:cjc135_2040"
    INDEX 01 07:31:64
  TRACK 383 AUDIO
    TITLE "0:"
    INDEX 01 07:33:22
  TRACK 384 AUDIO
    TITLE "19:cjc135_2041"
    INDEX 01 07:33:48
  TRACK 385 AUDIO
    TITLE "0:"
    INDEX 01 07:35:33
  TRACK 386 AUDIO
    TITLE "18:cjc135_2042"
    INDEX 01 07:36:32
  TRACK 387 AUDIO
    TITLE "0:"
    INDEX 01 07:37:51
  TRACK 388 AUDIO
    TITLE "19:cjc135_2043"
    INDEX 01 07:38:02
  TRACK 389 AUDIO
    TITLE "0:"
    INDEX 01 07:40:07
  TRACK 390 AUDIO
    TITLE "18:cjc135_2044"
    INDEX 01 07:41:10
  TRACK 391 AUDIO
    TITLE "0:"
    INDEX 01 07:42:27
  TRACK 392 AUDIO
    TITLE "19:cjc135_2045"
    INDEX 01 07:42:51
  TRACK 393 AUDIO
    TITLE "0:"
    INDEX 01 07:44:59
  TRACK 394 AUDIO
    TITLE "18:cjc135_2046"
    INDEX 01 07:45:59
  TRACK 395 AUDIO
    TITLE "0:"
    INDEX 01 07:46:72
  TRACK 396 AUDIO
    TITLE "19:cjc135_2047"
    INDEX 01 07:47:22
  TRACK 397 AUDIO
    TITLE "0:"
    INDEX 01 07:49:23
  TRACK 398 AUDIO
    TITLE "18:cjc135_2048"
    INDEX 01 07:50:23
  TRACK 399 AUDIO
    TITLE "0:"
    INDEX 01 07:51:42
  TRACK 400 AUDIO
    TITLE "19:cjc135_2049"
    INDEX 01 07:51:67
  TRACK 401 AUDIO
    TITLE "0:"
    INDEX 01 07:54:13
